<?xml version="1.0" standalone="no"?><!DOCTYPE svg PUBLIC "-//W3C//DTD SVG 1.1//EN" "http://www.w3.org/Graphics/SVG/1.1/DTD/svg11.dtd"><svg t="1715150137799" class="icon" viewBox="0 0 1024 1024" version="1.1" xmlns="http://www.w3.org/2000/svg" p-id="1099" xmlns:xlink="http://www.w3.org/1999/xlink" width="200" height="200"><path d="M909.0048 648.9088h-62.1056v87.7568a48.64 48.64 0 0 1-97.28 0v-87.7568h-72.96a48.64 48.64 0 0 1-46.5408 34.6112 48.5888 48.5888 0 0 1-46.5408-34.6112H510.5664v36.4544a48.64 48.64 0 0 1-48.64 48.64 48.64 48.64 0 0 1-48.64-48.64v-36.4544H181.6064a26.5728 26.5728 0 0 0-26.5728 26.5728v12.544a164.5568 164.5568 0 0 0 164.5568 164.5056h451.4304a164.5568 164.5568 0 0 0 164.5568-164.5056v-12.544a26.624 26.624 0 0 0-26.5728-26.5728z" fill="#FFC31A" p-id="1100"></path><path d="M935.5776 663.5008l1.024 17.3568c0 90.88-50.8928 161.536-141.7216 161.536l-33.5872-1.8432c45.5168-30.3616 91.8528-89.2928 93.696-203.6224h54.016a26.5728 26.5728 0 0 1 26.5728 26.5728z" fill="#F48806" p-id="1101"></path><path d="M771.0208 207.2576H319.5904a164.5568 164.5568 0 0 0-164.5568 164.5056v12.544a26.5728 26.5728 0 0 0 26.5728 26.5728h727.3984a26.624 26.624 0 0 0 26.5728-26.5728v-12.544a164.5568 164.5568 0 0 0-164.5568-164.5056z" fill="#FFC31A" p-id="1102"></path><path d="M935.5776 384.3072v-12.544a164.5568 164.5568 0 0 0-164.5568-164.5056h-9.728c45.5168 30.3104 91.8528 89.2928 93.696 203.6224h54.016a26.624 26.624 0 0 0 26.5728-26.5728z" fill="#F48806" p-id="1103"></path><path d="M904.3456 481.9456H186.2656a44.6976 44.6976 0 0 0-44.6976 44.6464v3.1232a44.6976 44.6976 0 0 0 44.6976 44.6976H377.856a35.4304 35.4304 0 0 1 35.4304 35.4304v75.52a48.64 48.64 0 0 0 48.64 48.64 48.64 48.64 0 0 0 48.64-48.64v-75.52a35.4304 35.4304 0 0 1 35.4304-35.4304 35.4304 35.4304 0 0 1 35.4816 35.4304V634.88a48.64 48.64 0 0 0 48.64 48.64 48.64 48.64 0 0 0 48.5888-48.64v-25.0368a35.4816 35.4816 0 0 1 35.4816-35.4304 35.4304 35.4304 0 0 1 35.4816 35.4304v125.1328a49.664 49.664 0 0 0 45.3632 50.176 48.64 48.64 0 0 0 51.8656-48.4864v-126.8224a35.4304 35.4304 0 0 1 35.4816-35.4304h21.9648a44.6464 44.6464 0 0 0 44.6464-44.6976v-3.1232a44.6464 44.6464 0 0 0-44.6464-44.6464z" fill="#FFE8D2" p-id="1104"></path><path d="M882.3808 574.4128h21.9648a44.6464 44.6464 0 0 0 44.6464-44.6976v-3.1232a44.6976 44.6976 0 0 0-40.1408-44.4416 198.0416 198.0416 0 0 0-44.1856-10.24s8.4992 70.2976-11.8784 71.68-54.6304 17.152-54.6304 71.68v105.1648c0 15.36 3.6864 53.0944-38.8608 27.0848-4.4032 2.7648-5.12-10.8032-9.6256-30.72v19.8144a48.6912 48.6912 0 1 0 97.28 0v-126.7712a35.4304 35.4304 0 0 1 35.4304-35.4304zM630.1184 683.52a48.64 48.64 0 0 0 48.5888-48.64v-25.0368a35.4816 35.4816 0 0 1 35.4816-35.4304 37.2224 37.2224 0 0 1 6.4 0.5632c-4.1472-13.1584-6.8608-21.1456-6.8608-21.1456s-79.5136-5.632-79.9232 45.6192c-0.768 27.4944-5.12 65.4336-41.7792 54.528-6.5024-13.1584-8.0384-11.0592-10.5472-40.96V634.88a48.64 48.64 0 0 0 48.64 48.64zM461.9264 734.0032a48.64 48.64 0 0 0 48.64-48.64v-75.52a35.4304 35.4304 0 0 1 35.4304-35.4304 35.3792 35.3792 0 0 1 15.36 3.5328c-8.6528-14.3872-14.336-22.9888-14.336-22.9888S465.92 542.72 465.92 590.0288v75.008c0 19.6096-6.4 38.0416-38.4512 25.6a86.5792 86.5792 0 0 0-11.3664 10.24 48.7424 48.7424 0 0 0 45.824 33.1264z" fill="#E8AD80" p-id="1105"></path><path d="M374.4768 207.9744h353.5872a144.64 144.64 0 0 1 105.728 46.08 20.48 20.48 0 1 0 30.0544-27.8016 185.5488 185.5488 0 0 0-135.7824-59.2384H374.4768a20.48 20.48 0 0 0 0 40.96z" fill="#293E40" p-id="1106"></path><path d="M138.6496 411.5456h727.3472a47.104 47.104 0 0 0 47.0528-47.0528v-12.4928a184.32 184.32 0 0 0-13.5168-69.5808 20.48 20.48 0 0 0-37.9392 15.36 143.7184 143.7184 0 0 1 10.496 54.1696v12.4928a6.0928 6.0928 0 0 1-6.0928 6.0928H138.6496a6.0928 6.0928 0 0 1-6.0928-6.0928v-12.4416a144.4352 144.4352 0 0 1 85.248-131.584 20.48 20.48 0 1 0-16.6912-37.376 185.344 185.344 0 0 0-109.5168 168.96v12.4928a47.104 47.104 0 0 0 47.0528 47.0528z" fill="#293E40" p-id="1107"></path><path d="M276.48 207.9744h21.504a20.48 20.48 0 0 0 0-40.96H276.48a20.48 20.48 0 0 0 0 40.96zM925.952 812.288h-81.92a184.7808 184.7808 0 0 0 69.0688-144.0768v-12.4928a47.104 47.104 0 0 0-47.0528-47.0528H824.32v-18.5856a15.0016 15.0016 0 0 1 14.9504-15.0016h22.016A65.2288 65.2288 0 0 0 926.72 509.952V506.88a65.2288 65.2288 0 0 0-65.1264-65.1776H143.36A65.2288 65.2288 0 0 0 78.1312 506.88v3.1232A65.2288 65.2288 0 0 0 143.36 575.0784h191.5392a15.0016 15.0016 0 0 1 14.9504 15.0016V665.6a69.12 69.12 0 0 0 138.24 0v-75.52a15.0016 15.0016 0 1 1 29.952 0v24.9856a69.12 69.12 0 1 0 138.24 0v-24.9856a15.0016 15.0016 0 1 1 29.952 0v45.568a20.48 20.48 0 0 0 40.96 0v-45.568a55.9616 55.9616 0 1 0-111.872 0v24.9856a28.16 28.16 0 1 1-56.32 0v-24.9856a55.9616 55.9616 0 1 0-111.872 0V665.6a28.16 28.16 0 0 1-56.32 0v-75.52a56.0128 56.0128 0 0 0-55.9104-55.9616H143.36a24.2176 24.2176 0 0 1-24.1664-24.1664V506.88A24.2176 24.2176 0 0 1 143.36 482.6112h718.0288A24.2176 24.2176 0 0 1 885.76 506.88v3.1232a24.2176 24.2176 0 0 1-24.1664 24.1664h-22.016A56.0128 56.0128 0 0 0 783.36 590.08V716.8a27.9552 27.9552 0 0 1-6.2464 17.6128l-0.256 0.3584-1.3824 1.4848-0.5632 0.6144-1.3824 1.2288-0.7168 0.6144a16.128 16.128 0 0 1-1.4848 1.1264l-0.768 0.512-1.536 0.9728-0.8704 0.4608-1.536 0.7168-1.0752 0.4608-1.4848 0.512-1.3312 0.4096-1.28 0.3584-1.5872 0.3072H750.2336a29.8496 29.8496 0 0 1-23.1936-29.3376v-9.2672a20.48 20.48 0 0 0-40.96 0v9.2672a9.216 9.216 0 0 0 0 1.1264 1.8432 1.8432 0 0 0 0 0.512 69.1712 69.1712 0 0 0 44.8512 64.6144l0.8704 0.3072c1.5872 0.5632 3.1744 1.1264 4.7616 1.5872l2.4064 0.6144 3.7888 0.8192c1.0752 0 2.1504 0.3584 3.2768 0.4608l3.3792 0.4096H755.0976c2.304 0 4.608 0 6.8608-0.3584h0.7168q3.072-0.3072 6.144-0.9216h0.512c2.0992-0.4096 4.096-0.9728 6.144-1.5872h0.3072a59.6992 59.6992 0 0 0 5.9904-2.2016h0.3072c1.9456-0.8704 3.84-1.7408 5.6832-2.7648l0.512-0.3072c1.7408-0.9216 3.3792-1.9456 5.12-3.0208l0.9728-0.6656c1.4336-1.024 2.8672-2.048 4.2496-3.1744l1.28-1.1264c0.8192-0.7168 1.6896-1.3824 2.4576-2.0992l1.024-1.0752 1.792-1.8432c0.9728-1.024 1.8944-2.048 2.816-3.1232l1.8432-2.304c0.7168-0.9728 1.4848-1.9456 2.2016-2.9696s1.4848-2.3552 2.2016-3.5328 0.9216-1.3824 1.28-2.1504a60.8768 60.8768 0 0 0 2.7648-5.4784 2.7648 2.7648 0 0 1 0-0.5632A68.8128 68.8128 0 0 0 824.32 716.8v-67.1744h41.5744a6.0928 6.0928 0 0 1 6.0928 6.0928v12.4928a144.2304 144.2304 0 0 1-144.0256 144.0768H276.48a144.2304 144.2304 0 0 1-144.0256-144.0768v-12.4928a6.0928 6.0928 0 0 1 6.0928-6.0928H281.6a20.48 20.48 0 0 0 0-40.96H138.6496a47.104 47.104 0 0 0-47.0528 47.0528v12.4928a185.1904 185.1904 0 0 0 181.4528 184.9344h652.9024a20.48 20.48 0 0 0 0-40.96zM120.1152 812.288h-41.4208a20.48 20.48 0 0 0 0 40.96h41.4208a20.48 20.48 0 1 0 0-40.96z" fill="#293E40" p-id="1108"></path><path d="M241.2032 341.9648a20.48 20.48 0 0 1-18.432-29.3888l0.5632-1.1264a69.0176 69.0176 0 0 1 3.584-6.7584 20.48 20.48 0 0 1 35.1232 21.0944c-0.8704 1.4848-1.1264 2.048-1.792 3.3792l-0.5632 1.1776a20.48 20.48 0 0 1-18.4832 11.6224zM285.5936 294.4a20.48 20.48 0 0 1-10.24-38.144c42.5984-25.1904 91.392-20.48 93.4912-20.48a20.48 20.48 0 0 1-4.0448 40.96c-0.512 0-37.888-3.2768-68.5568 14.8992a20.48 20.48 0 0 1-10.6496 2.7648z" fill="#FFFFFF" p-id="1109"></path></svg>